<mxfile host="app.diagrams.net" modified="2024-02-27T07:26:20.205Z" agent="Mozilla/5.0 (Windows NT 10.0; Win64; x64) AppleWebKit/537.36 (KHTML, like Gecko) Chrome/122.0.0.0 Safari/537.36 Edg/122.0.0.0" version="23.1.7" etag="6q55QiNhJVus3qSdFOU4" type="github">
  <diagram name="Page-1" id="myiEmatDjaEBH4oKRA4A">
    <mxGraphModel>
      <root>
        <mxCell id="0" />
        <mxCell id="1" parent="0" />
      </root>
    </mxGraphModel>
  </diagram>
</mxfile>
